<?xml version="1.0" encoding="UTF-8" standalone="no"?>
<!-- Created with Inkscape (http://www.inkscape.org/) -->
<svg
   xmlns:dc="http://purl.org/dc/elements/1.1/"
   xmlns:cc="http://web.resource.org/cc/"
   xmlns:rdf="http://www.w3.org/1999/02/22-rdf-syntax-ns#"
   xmlns:svg="http://www.w3.org/2000/svg"
   xmlns="http://www.w3.org/2000/svg"
   xmlns:sodipodi="http://sodipodi.sourceforge.net/DTD/sodipodi-0.dtd"
   xmlns:inkscape="http://www.inkscape.org/namespaces/inkscape"
   id="svg2403"
   sodipodi:version="0.32"
   inkscape:version="0.45.1"
   width="545"
   height="376"
   version="1.0"
   sodipodi:docbase="C:\Users\Jimmy\Desktop"
   sodipodi:docname="Logo_Canadiens_de_Montréal_1926-1952.svg"
   inkscape:output_extension="org.inkscape.output.svg.inkscape">
  <metadata
     id="metadata2408">
    <rdf:RDF>
      <cc:Work
         rdf:about="">
        <dc:format>image/svg+xml</dc:format>
        <dc:type
           rdf:resource="http://purl.org/dc/dcmitype/StillImage" />
      </cc:Work>
    </rdf:RDF>
  </metadata>
  <defs
     id="defs2406" />
  <sodipodi:namedview
     inkscape:window-height="853"
     inkscape:window-width="1440"
     inkscape:pageshadow="2"
     inkscape:pageopacity="0.0"
     guidetolerance="10.0"
     gridtolerance="10.0"
     objecttolerance="10.0"
     borderopacity="1.0"
     bordercolor="#666666"
     pagecolor="#ffffff"
     id="base"
     inkscape:zoom="1.0053191"
     inkscape:cx="272.5"
     inkscape:cy="188"
     inkscape:window-x="-4"
     inkscape:window-y="-4"
     inkscape:current-layer="svg2403" />
  <g
     id="g2412">
    <path
       style="fill:#fefefe"
       d="M 241,374.91694 C 155.11503,369.49014 86.632021,344.05994 44.9497,302.11641 C 17.054673,274.04658 1.8515689,240.14531 0.27649183,202.5 C -2.6721433,132.02581 35.230565,70.994432 103.5,36.288312 C 150.28853,12.502436 200.44428,1.5612767 268.5,0.29460794 C 342.85528,-1.0893096 395.11956,6.8426693 447.49312,27.459808 C 452.43934,29.406914 456.9581,31 457.53481,31 C 458.11151,31 459.79722,28.525 461.28082,25.5 L 463.97827,20 L 494.37784,20 L 524.77742,20 L 525.32968,23.25 C 525.63342,25.0375 526.60256,32.35 527.48331,39.5 C 528.36407,46.65 530.18205,61.05 531.52329,71.5 C 532.86452,81.95 534.62178,95.661188 535.42831,101.96931 C 536.23484,108.27742 536.80591,113.52303 536.69736,113.62622 C 536.58881,113.7294 521.71168,118.41512 503.63706,124.03892 L 470.77412,134.26402 L 467.13706,132.09774 C 452.11356,123.14952 430.33535,113.66458 410.86952,107.59184 C 399.11623,103.92517 381.05711,99.609559 380.36462,100.30204 C 380.15787,100.5088 380.10375,138.95742 380.24435,185.74342 L 380.5,270.80888 L 391,267.60156 C 416.82392,259.71341 443.52372,244.10845 457.89201,228.50586 L 462.28402,223.73656 L 465.39201,225.51714 C 467.1014,226.49645 474.35,230.75404 481.5,234.97843 C 488.65,239.20283 500.125,245.96184 507,249.99847 C 523.09704,259.44977 544.42032,272.12967 544.7776,272.46293 C 544.93028,272.60535 542.51808,276.04695 539.41715,280.11093 C 492.66535,341.38252 394.41157,376.6171 272.5,375.82952 C 262.05,375.76201 247.875,375.35135 241,374.91694 z M 311.34912,281.35326 L 319,280.70653 L 319,248.35326 L 319,216 L 293.34387,216 L 267.68774,216 L 268.34387,231.15899 C 268.70474,239.49644 269,254.34644 269,264.15899 L 269,282 L 286.34912,282 C 295.89114,282 307.14114,281.70897 311.34912,281.35326 z M 208,186 L 208,98 L 205.72829,98 C 202.12396,98 181.24392,103.66258 172.81312,106.92646 C 144.40396,117.92471 123.16141,135.93415 111.573,158.84589 C 104.41767,172.99287 102.56671,195.02502 107.21989,210.66153 C 114.19953,234.11582 134.18345,251.83336 167.5,264.10526 C 174.86815,266.81926 196.43053,272.31995 203.5,273.28908 C 205.15,273.51527 206.8375,273.76776 207.25,273.85017 C 207.6625,273.93258 208,234.4 208,186 z M 319,127.61663 L 319,92.233263 L 316.75,91.630286 C 315.5125,91.298649 304.2625,91.021165 291.75,91.013655 L 269,91 L 269,110.34029 C 269,120.97745 268.70433,137.17745 268.34296,146.34029 L 267.68592,163 L 293.34296,163 L 319,163 L 319,127.61663 z "
       id="path2422" />
    <path
       style="fill:#cab4bf"
       d="M 241,374.84014 C 225.10301,373.93333 198.24677,370.56139 181.5,367.3696 C 102.03442,352.22416 44.472831,316.27659 16.986354,264.62981 C 7.0198412,245.90284 1.1847081,224.20693 0.27649183,202.5 C -2.6721433,132.02581 35.230565,70.994432 103.5,36.288312 C 139.48871,17.992736 173.03589,8.6632326 225.48193,2.365019 C 240.81611,0.52354706 301.89102,-0.28805583 323,1.0691358 C 370.85048,4.1456587 408.59269,12.146441 447.49312,27.459808 C 452.43934,29.406914 456.9581,31 457.53481,31 C 458.11151,31 459.79722,28.525 461.28082,25.5 L 463.97827,20 L 494.37784,20 L 524.77742,20 L 525.32968,23.25 C 525.63342,25.0375 526.60256,32.35 527.48331,39.5 C 528.36407,46.65 530.18205,61.05 531.52329,71.5 C 532.86452,81.95 534.62178,95.661188 535.42831,101.96931 C 536.23484,108.27742 536.80591,113.52303 536.69736,113.62622 C 536.58881,113.7294 521.71168,118.41512 503.63706,124.03892 L 470.77412,134.26402 L 467.13706,132.09774 C 452.11356,123.14952 430.33535,113.66458 410.86952,107.59184 C 399.11623,103.92517 381.05711,99.609559 380.36462,100.30204 C 380.15787,100.5088 380.10375,138.95742 380.24435,185.74342 L 380.5,270.80888 L 391,267.60156 C 416.82392,259.71341 443.52372,244.10845 457.89201,228.50586 L 462.28402,223.73656 L 465.39201,225.51714 C 467.1014,226.49645 474.35,230.75404 481.5,234.97843 C 488.65,239.20283 500.125,245.96184 507,249.99847 C 523.09704,259.44977 544.42032,272.12967 544.7776,272.46293 C 545.42715,273.06881 533.17125,288.12541 526.13955,295.3601 C 470.71624,352.38341 364.8136,381.9028 241,374.84014 z M 317.3486,365.95899 C 399.51634,360.3696 472.79777,334.04436 514.01997,295.3078 C 522.0683,287.74477 532.00858,276.622 531.99175,275.19808 C 531.98721,274.81414 530.29971,273.55959 528.24175,272.4102 C 524.13757,270.11797 517.28303,266.09783 488,248.8087 C 477.275,242.47651 467.45639,236.74662 466.18087,236.07563 C 464.08015,234.97053 463.42092,235.26507 459.18087,239.2032 C 439.63539,257.35689 412.2994,271.43086 380.85776,279.52794 C 377.20452,280.46875 373.71238,281.07079 373.09745,280.86582 C 371.63323,280.37774 371.48774,90.670753 372.95121,90.18293 C 374.51052,89.66316 394.61631,93.902986 405.5,97.046684 C 427.55131,103.41609 441.19489,108.80884 459.71507,118.47567 L 471.99508,124.88537 L 499.18163,116.42527 C 514.13422,111.77221 526.56361,107.76972 526.80249,107.53084 C 527.29981,107.03353 525.90231,94.382163 522.49105,68.5 C 521.18624,58.6 519.56431,45.4375 518.88677,39.25 L 517.65487,28 L 493.54996,28 L 469.44505,28 L 466.57501,34.587992 C 464.99648,38.211388 463.15027,41.388841 462.47231,41.648999 C 461.79435,41.909157 455.89823,40.008146 449.36983,37.42453 C 397.06482,16.724823 361.49428,10.330737 293,9.3158121 C 242.35363,8.5653517 213.30465,10.913551 179.35636,18.502292 C 168.14215,21.009099 146.1279,27.165156 141.58744,29.063984 C 140.43935,29.544117 135.225,31.570181 130,33.566349 C 116.23523,38.825067 98.193621,48.268392 85,57.120218 C 45.774117,83.437534 21.614077,118.10647 11.850566,162.08747 C 9.8347207,171.16811 9.5365514,175.25012 9.5195244,194 C 9.5042357,210.83569 9.8822697,217.27012 11.26206,223.6593 C 24.409727,284.54018 74.231741,329.85754 151.97055,351.64563 C 177.16283,358.70635 216.42898,365.07673 242.5,366.33277 C 258.21987,367.09011 304.08765,366.86106 317.3486,365.95899 z M 244,360.90419 C 205.01934,358.58703 172.99951,352.75415 142.10721,342.34293 C 81.300689,321.8501 40.716122,285.63127 25.187013,238 C 16.111598,210.16366 15.721246,177.77113 24.139487,151.07325 C 42.550642,92.683503 102.12941,44.805452 181,25.018687 C 216.76512,16.046066 239.64378,13.478674 283,13.572483 C 354.67452,13.727562 409.50064,23.843159 453.90067,45.104209 C 461.82104,48.896894 468.40036,52 468.5214,52 C 468.64243,52 470.44581,48.175 472.52891,43.5 L 476.31637,35 L 494.02935,35 L 511.74234,35 L 512.38736,40.25 C 512.74212,43.1375 514.87605,58.46154 517.12943,74.303423 C 519.38281,90.145306 521.02958,103.30375 520.78892,103.54441 C 520.54826,103.78507 509.7706,107.4056 496.83857,111.59004 L 473.32577,119.1981 L 463.91288,113.77356 C 429.5813,93.988673 385.86516,80.638498 338,75.321886 C 316.67723,72.953463 272.88687,72.975285 249.03052,75.366222 C 199.84042,80.296166 158.12258,93.235943 130.06806,112.26525 C 120.51168,118.74732 101.54823,137.72394 97.169479,145.18668 C 79.969608,174.50058 79.405588,207.42099 95.64337,234.26167 C 100.55155,242.37478 115.48679,257.35388 125.02111,263.72567 C 160.34976,287.33585 215.32344,299.98945 282.60478,299.99757 C 325.73083,300.00278 362.68032,294.59661 396,283.40644 C 419.95119,275.36261 447.27862,260.64679 460.73975,248.54408 L 465.76971,244.02171 L 481.63486,252.61871 C 490.36069,257.34705 503.28385,264.3708 510.353,268.22703 L 523.20599,275.23835 L 516.853,281.7335 C 476.06262,323.43662 412.0801,349.92564 331.51302,358.46502 C 301.05767,361.69301 271.24741,362.52388 244,360.90419 z M 266.5,290.08189 L 260.5,289.5 L 260.23878,248.75 L 259.97757,208 L 293.48878,208 L 327,208 L 327,248.34114 L 327,288.68228 L 311.75,289.8476 C 296.22823,291.03369 277.32346,291.13157 266.5,290.08189 z M 311.34912,281.35326 L 319,280.70653 L 319,248.35326 L 319,216 L 293.34387,216 L 267.68774,216 L 268.34387,231.15899 C 268.70474,239.49644 269,254.34644 269,264.15899 L 269,282 L 286.34912,282 C 295.89114,282 307.14114,281.70897 311.34912,281.35326 z M 199.5,281.38364 C 156.51381,273.66287 123.99316,256.21983 107.99779,232.30477 C 94.395552,211.96773 92.067771,183.51293 102.0456,159.54511 C 116.09942,125.78631 150.36251,101.19193 198.12041,90.581676 C 204.51163,89.161754 211.14913,88 212.87041,88 L 216,88 L 216,185.5 L 216,283 L 211.75,282.91026 C 209.4125,282.86091 203.9,282.17393 199.5,281.38364 z M 208,186 L 208,98 L 205.72829,98 C 202.12396,98 181.24392,103.66258 172.81312,106.92646 C 144.40396,117.92471 123.16141,135.93415 111.573,158.84589 C 104.41767,172.99287 102.56671,195.02502 107.21989,210.66153 C 114.19953,234.11582 134.18345,251.83336 167.5,264.10526 C 174.86815,266.81926 196.43053,272.31995 203.5,273.28908 C 205.15,273.51527 206.8375,273.76776 207.25,273.85017 C 207.6625,273.93258 208,234.4 208,186 z M 260,127.46862 C 260,86.950578 260.12114,83.887486 261.75,83.218615 C 264.09148,82.257115 319.4854,82.350879 324.25,83.324407 L 328,84.090626 L 328,127.54531 L 328,171 L 294,171 L 260,171 L 260,127.46862 z M 319,127.61663 L 319,92.233263 L 316.75,91.630286 C 315.5125,91.298649 304.2625,91.021165 291.75,91.013655 L 269,91 L 269,110.34029 C 269,120.97745 268.70433,137.17745 268.34296,146.34029 L 267.68592,163 L 293.34296,163 L 319,163 L 319,127.61663 z "
       id="path2420" />
    <path
       style="fill:#54689b"
       d="M 240,374.38995 C 178.28666,369.16583 138.70913,359.5525 100,340.38413 C 44.719582,313.00981 11.739125,272.45934 2.4959994,220.5 C 0.37884361,208.59861 0.34683766,182.88825 2.4319539,169.05229 C 7.7778713,133.57902 23.060107,103.21693 48.946983,76.63823 C 78.580095,46.213176 116.12677,26.039242 167.34226,13.024108 C 207.44219,2.8337167 252.79077,-1.1309731 305.24537,0.96765477 C 366.21834,3.4070898 401.04401,9.9629438 446.84878,27.624178 C 453.09061,30.03088 458.35288,32 458.54271,32 C 458.73253,32 460.09954,29.3 461.58049,26 L 464.27313,20 L 494.44879,20 L 524.62446,20 L 530.50239,66.476504 C 533.73526,92.038581 536.18225,113.12776 535.94016,113.34135 C 535.69807,113.55495 520.90329,118.27195 503.06287,123.82358 L 470.62574,133.91746 L 465.06287,130.56899 C 452.04871,122.73537 433.03242,114.3736 414.90178,108.51236 C 403.29004,104.75853 384.76863,100.00353 381.75,100.00129 C 380.09696,100.00007 380,104.74139 380,185.57946 L 380,271.15891 L 383.25,270.45169 C 390.81761,268.80493 407.33396,262.46685 418.5,256.92465 C 432.62515,249.91371 445.57793,240.88202 455.41902,231.18183 L 462.5,224.20224 L 503,248.06224 C 525.275,261.18525 543.5,272.37479 543.5,272.9279 C 543.5,275.1121 533.98925,286.87957 524.5,296.43624 C 483.71213,337.51391 419.97214,362.95607 332.5,373.07407 C 323.73714,374.08768 248.99047,375.15101 240,374.38995 z M 317.5,366.50254 C 319.7,366.26609 328.475,365.34206 337,364.44915 C 419.04106,355.85611 489.01,325.97606 525.7379,283.84912 C 531.37431,277.38416 532.7019,275.29374 531.7379,274.40159 C 531.05706,273.77149 515.61559,264.51087 497.42354,253.82243 L 464.34708,234.38892 L 456.92354,240.82852 C 443.22927,252.70771 422.64757,264.97398 405.44577,271.50821 C 399.0805,273.92611 374.77279,281 372.82954,281 C 372.37329,281 372,238.01643 372,185.48095 L 372,89.961896 L 374.25,90.43019 C 375.4875,90.687752 382.35,92.096104 389.5,93.559862 C 412.98159,98.367044 442.88628,109.39389 464.16733,121.09216 L 471.5,125.12296 L 477,123.57522 C 484.56118,121.44747 527.21851,108.11482 527.56109,107.77224 C 527.71351,107.61982 525.63393,90.171213 522.93981,68.997557 C 520.24568,47.8239 518.03208,29.9375 518.0207,29.25 C 518.00472,28.284767 512.44907,28 493.63389,28 L 469.26777,28 L 466.13782,35 C 464.41635,38.85 462.82528,42 462.60211,42 C 462.37894,42 455.96467,39.571484 448.34817,36.603299 C 411.96904,22.42617 386.48346,15.971169 351.5,12.07354 C 302.57302,6.622415 259.01131,6.629097 215,12.094478 C 122.92626,23.528311 54.66979,63.300405 25.523153,122.5 C 18.240536,137.29169 14.768094,147.00324 11.968842,160.40801 C 4.719135,195.12467 8.1058883,227.35949 22.082348,256.66748 C 37.150353,288.26439 68.789207,317.48624 107.53532,335.5924 C 145.09254,353.14299 194.85496,364.42569 244.5,366.64661 C 252.2,366.99107 258.725,367.49537 259,367.76726 C 259.54798,368.30904 311.05188,367.19557 317.5,366.50254 z M 242,360.32073 C 188.31021,356.38525 147.89904,346.77751 112.5,329.53216 C 61.891941,304.87744 32.218078,270.30415 21.82545,223.88641 C 19.782838,214.76327 19.50138,210.88501 19.511343,192 C 19.521886,172.01502 19.711089,169.75585 22.196353,159.93963 C 24.93612,149.11819 29.139055,137.60591 33.470958,129.05731 C 42.01239,112.20161 61.821901,88.545732 78.900812,74.806453 C 120.57575,41.280684 178.33487,20.574884 246.07889,14.875551 C 266.58893,13.150033 320.91542,14.320308 344,16.984921 C 391.64912,22.484976 427.74191,32.299014 460.11563,48.558074 L 468.94718,52.993544 L 471.01008,48.246772 C 472.14468,45.636047 473.84536,41.770834 474.78939,39.657409 L 476.5058,35.814817 L 493.46346,35.951305 C 502.79018,36.026373 510.57766,36.244322 510.76897,36.435637 C 510.96028,36.626951 512.24748,44.594698 513.62941,54.14174 C 515.01134,63.688783 517.17263,78.625578 518.43228,87.334618 C 520.087,98.775108 520.40682,103.2904 519.58477,103.60584 C 518.95899,103.84598 508.28978,107.32904 495.87541,111.34598 L 473.30383,118.64951 L 465.90191,114.26234 C 437.8869,97.657615 399.28863,84.22095 362,78.092443 C 336.18721,73.850027 331.20961,73.516228 294,73.532346 C 254.92945,73.54927 242.80332,74.475836 215.5,79.530586 C 156.49998,90.453447 113.66481,115.01439 94.564818,148.87272 C 83.565782,168.37058 80.263898,193.3497 86.010726,213.58537 C 99.182809,259.96676 151.36389,289.35756 237,298.6295 C 260.72147,301.19786 307.03736,300.98191 330.22946,298.19482 C 385.61658,291.53872 431.21218,274.47722 460.51503,249.44301 L 465.8603,244.8764 L 469.18015,246.55935 C 471.00607,247.48498 483.63552,254.30197 497.2456,261.70823 L 521.99119,275.17416 L 518.57404,279.33708 C 514.06815,284.82635 500.00928,296.96311 489.18076,304.71175 C 437.87017,341.4284 359.50968,361.48978 270,360.82509 C 257.075,360.72911 244.475,360.50215 242,360.32073 z M 275.40845,290.25325 L 261.31691,289.94702 L 260.66091,268.22351 C 260.30011,256.27558 260.0038,237.83143 260.00245,227.23652 L 260,207.97304 L 293.25,208.23652 L 326.5,208.5 L 326.76143,248.20254 L 327.02286,287.90508 L 323.76143,288.43844 C 319.70993,289.101 291.42378,291.08093 290.31261,290.77974 C 289.86567,290.65859 283.1588,290.42167 275.40845,290.25325 z M 314.25,281.36695 L 319,280.81232 L 319,248.40616 L 319,216 L 293.5,216 L 268,216 L 268,248.96502 L 268,281.93003 L 278.25,282.29314 C 289.43003,282.68919 306.74004,282.24384 314.25,281.36695 z M 202.7765,281.41054 C 155.53002,274.03268 118.97404,253.39486 104.54741,225.95493 C 98.570252,214.58617 96.53195,205.43418 96.651004,190.5 C 96.768913,175.70956 98.750188,166.43113 104.04863,155.85647 C 119.00497,126.00654 146.02534,105.56337 185.79582,94.007856 C 192.65732,92.014212 212.00204,88 214.74802,88 C 215.7421,88 216,108.0844 216,185.5 L 216,283 L 213.75,282.88638 C 212.5125,282.8239 207.57442,282.15976 202.7765,281.41054 z M 208,185.5 C 208,136.825 207.65121,97 207.22491,97 C 206.79861,97 200.97444,98.337039 194.28231,99.971198 C 136.37665,114.11124 101.15937,151.95734 104.31376,196.6555 C 106.89539,233.23749 138.3753,259.83555 193,271.58843 C 198.775,272.83096 204.5125,273.88187 205.75,273.92379 L 208,274 L 208,185.5 z M 260.33714,127.33329 C 260.70176,103.3166 261.18672,83.479943 261.41484,83.251823 C 262.18966,82.477004 309.45391,82.588801 318.25,83.386259 L 327,84.179538 L 327,127.58977 L 327,171 L 293.3371,171 L 259.67419,171 L 260.33714,127.33329 z M 319.0585,127 L 319.0628,91.5 L 311.7814,90.880704 C 301.68629,90.022096 279.57272,89.888535 273.25,90.647983 L 268,91.278582 L 268,127.15617 L 268,163.03376 L 293.5271,162.76688 L 319.05421,162.5 L 319.0585,127 z "
       id="path2418" />
    <path
       style="fill:#e0393d"
       d="M 250,374.42314 C 248.075,374.2092 239.525,373.55323 231,372.96543 C 212.39082,371.68233 187.43038,368.00304 169,363.82631 C 72.609456,341.98214 12.96108,289.32633 2.5301131,216.87166 C -2.5816255,181.36495 5.4807651,140.49867 23.610459,110.02055 C 59.044744,50.451399 128.12158,13.886663 225,3.4181648 C 244.86451,1.2716437 295.13593,0.45587925 318.09388,1.9075116 C 372.87734,5.3714714 402.47579,11.32288 444.78465,27.381435 L 459.0693,32.80325 L 461.97193,26.401625 L 464.87457,20 L 494.41823,20 L 523.9619,20 L 524.41974,22.25 C 525.07461,25.468217 535.19253,106.93236 535.36025,110.33712 C 535.49784,113.13036 535.28349,113.24238 521.5,117.58028 C 513.8,120.00361 499.17201,124.49731 488.99336,127.56629 L 470.48673,133.14625 L 462.49336,128.58238 C 451.93801,122.55572 433.0346,114.08205 420,109.53425 C 410.33012,106.16041 383.34292,99 380.29696,99 C 379.22767,99 379.03554,114.74446 379.24445,185.25 L 379.5,271.5 L 381.88395,271.16445 C 386.73085,270.48223 405.12434,263.95655 414.17021,259.70987 C 430.64492,251.97565 443.76882,243.07557 456.10611,231.27071 L 462.71223,224.9497 L 503.36731,248.86087 L 544.02239,272.77205 L 539.31075,279.13602 C 532.64343,288.14151 512.98649,307.40899 503.23193,314.5 C 460.19641,345.78439 400.00034,365.98689 330,372.63866 C 315.57276,374.00961 257.86184,375.29691 250,374.42314 z M 322.5,366.62476 C 324.15,366.32946 330.675,365.59206 337,364.98609 C 353.40615,363.41428 381.02258,358.48308 398.5,354.00463 C 440.69017,343.19375 477.28419,326.23044 503.9726,305.11237 C 512.89747,298.05029 533,277.59288 533,275.57255 C 533,274.65976 477.98179,241.37225 464.6999,234.24914 C 464.25985,234.01313 461.78485,235.78445 459.1999,238.1854 C 441.16678,254.93491 416.92029,268.12628 389,276.37787 C 384.325,277.75952 378.8125,279.18981 376.75,279.55627 L 373,280.22258 L 373,185.52339 L 373,90.824204 L 377.25,91.486347 C 392.6683,93.888493 417.6085,100.93083 434,107.51078 C 444.41872,111.69311 462.71128,120.44193 468.53192,124.02642 L 471.56383,125.89355 L 499.53192,117.13125 L 527.5,108.36894 L 527.34408,102.93447 C 527.2084,98.205291 519.99483,39.135705 518.46787,30.25 L 517.90937,27 L 493.59547,27 L 469.28156,27 L 465.89078,34.371748 L 462.5,41.743497 L 451.5,37.341277 C 402.52193,17.740165 367.98201,10.918604 302.79589,7.972527 C 272.02386,6.5817896 230.94122,8.5485525 206,12.606469 C 166.74688,18.992922 139.4834,27.179445 111.5,40.982393 C 63.543324,64.63726 31.696295,98.480486 16.611172,141.81893 C 6.3283254,171.36079 5.1635354,209.19276 13.696083,236.5 C 29.949641,288.51728 73.508326,327.16628 140.41052,348.93191 C 170.07324,358.58223 197.63252,363.49393 244,367.39393 C 250.45363,367.93675 318.91743,367.26592 322.5,366.62476 z M 242,360.32073 C 188.31021,356.38525 147.89904,346.77751 112.5,329.53216 C 61.891941,304.87744 32.218078,270.30415 21.82545,223.88641 C 19.782838,214.76327 19.50138,210.88501 19.511343,192 C 19.521886,172.01502 19.711089,169.75585 22.196353,159.93963 C 24.93612,149.11819 29.139055,137.60591 33.470958,129.05731 C 42.01239,112.20161 61.821901,88.545732 78.900812,74.806453 C 120.57575,41.280684 178.33487,20.574884 246.07889,14.875551 C 266.58893,13.150033 320.91542,14.320308 344,16.984921 C 391.64912,22.484976 427.74191,32.299014 460.11563,48.558074 L 468.94718,52.993544 L 471.01008,48.246772 C 472.14468,45.636047 473.84536,41.770834 474.78939,39.657409 L 476.5058,35.814817 L 493.46346,35.951305 C 502.79018,36.026373 510.57766,36.244322 510.76897,36.435637 C 510.96028,36.626951 512.24748,44.594698 513.62941,54.14174 C 515.01134,63.688783 517.17263,78.625578 518.43228,87.334618 C 520.087,98.775108 520.40682,103.2904 519.58477,103.60584 C 518.95899,103.84598 508.28978,107.32904 495.87541,111.34598 L 473.30383,118.64951 L 465.90191,114.26234 C 437.8869,97.657615 399.28863,84.22095 362,78.092443 C 336.18721,73.850027 331.20961,73.516228 294,73.532346 C 254.92945,73.54927 242.80332,74.475836 215.5,79.530586 C 156.49998,90.453447 113.66481,115.01439 94.564818,148.87272 C 83.565782,168.37058 80.263898,193.3497 86.010726,213.58537 C 99.182809,259.96676 151.36389,289.35756 237,298.6295 C 260.72147,301.19786 307.03736,300.98191 330.22946,298.19482 C 385.61658,291.53872 431.21218,274.47722 460.51503,249.44301 L 465.8603,244.8764 L 469.18015,246.55935 C 471.00607,247.48498 483.63552,254.30197 497.2456,261.70823 L 521.99119,275.17416 L 518.57404,279.33708 C 514.06815,284.82635 500.00928,296.96311 489.18076,304.71175 C 437.87017,341.4284 359.50968,361.48978 270,360.82509 C 257.075,360.72911 244.475,360.50215 242,360.32073 z M 264.77221,289.34293 L 261.04441,288.88192 L 260.77221,248.94061 L 260.5,208.9993 L 293.25,208.99965 L 326,209 L 326,248.36995 L 326,287.7399 L 321.25,288.38847 C 315.31531,289.1988 269.82342,289.9676 264.77221,289.34293 z M 310.75,282.34579 L 319,281.70357 L 319,248.35178 L 319,215 L 293.5,215 L 268,215 L 268,249 L 268,283 L 285.25,282.99401 C 294.7375,282.99071 306.2125,282.69901 310.75,282.34579 z M 197.5,280.00601 C 176.38122,276.24714 153.51809,268.19655 138.78889,259.3326 C 116.82329,246.11383 104.162,230.16269 98.87154,209.04332 C 96.049662,197.77846 96.580185,178.22769 99.998847,167.5 C 110.21576,135.43952 138.24634,110.09635 178.01756,96.961246 C 187.94926,93.681138 208.22678,89 212.50368,89 L 215,89 L 215,185.5 L 215,282 L 211.25,281.89294 C 209.1875,281.83406 203,280.98494 197.5,280.00601 z M 208.7554,185.66672 L 209.01081,97 L 206.7554,97.001295 C 202.7206,97.003611 184.22292,101.88479 174.24298,105.5807 C 141.3973,117.74455 117.21216,139.93186 107.29323,167 C 104.72762,174.00138 104.54341,175.56373 104.52245,190.5 C 104.50241,204.78468 104.75065,207.19685 106.83795,213 C 115.42862,236.88395 137.05219,254.73055 171.25646,266.16661 C 182.30751,269.86149 205.16635,275.17072 207.5,274.58459 C 208.15485,274.42012 208.58815,243.72996 208.7554,185.66672 z M 261,127.10941 L 261,84.218812 L 264.75,83.667058 C 269.95245,82.901599 321.98708,83.639502 324.75,84.517918 L 327,85.233263 L 327,127.61663 L 327,170 L 294,170 L 261,170 L 261,127.10941 z M 320,127.09261 L 320,91.25 L 316.875,90.625 C 315.15625,90.28125 303.45625,90 290.875,90 L 268,90 L 267.9993,126.75 L 267.9986,163.5 L 293.9993,163.21761 L 320,162.93521 L 320,127.09261 z "
       id="path2416" />
    <path
       style="fill:#003372"
       d="M 250,374.42314 C 248.075,374.2092 239.525,373.55323 231,372.96543 C 212.39082,371.68233 187.43038,368.00304 169,363.82631 C 72.609456,341.98214 12.96108,289.32633 2.5301131,216.87166 C -2.5816255,181.36495 5.4807651,140.49867 23.610459,110.02055 C 59.044744,50.451399 128.12158,13.886663 225,3.4181648 C 244.86451,1.2716437 295.13593,0.45587925 318.09388,1.9075116 C 372.87734,5.3714714 402.47579,11.32288 444.78465,27.381435 L 459.0693,32.80325 L 461.97193,26.401625 L 464.87457,20 L 494.41823,20 L 523.9619,20 L 524.41974,22.25 C 525.07461,25.468217 535.19253,106.93236 535.36025,110.33712 C 535.49784,113.13036 535.28349,113.24238 521.5,117.58028 C 513.8,120.00361 499.17201,124.49731 488.99336,127.56629 L 470.48673,133.14625 L 462.49336,128.58238 C 451.93801,122.55572 433.0346,114.08205 420,109.53425 C 410.33012,106.16041 383.34292,99 380.29696,99 C 379.22767,99 379.03554,114.74446 379.24445,185.25 L 379.5,271.5 L 381.88395,271.16445 C 386.73085,270.48223 405.12434,263.95655 414.17021,259.70987 C 430.64492,251.97565 443.76882,243.07557 456.10611,231.27071 L 462.71223,224.9497 L 503.36731,248.86087 L 544.02239,272.77205 L 539.31075,279.13602 C 532.64343,288.14151 512.98649,307.40899 503.23193,314.5 C 460.19641,345.78439 400.00034,365.98689 330,372.63866 C 315.57276,374.00961 257.86184,375.29691 250,374.42314 z M 322.5,366.62476 C 324.15,366.32946 330.675,365.59206 337,364.98609 C 353.40615,363.41428 381.02258,358.48308 398.5,354.00463 C 440.69017,343.19375 477.28419,326.23044 503.9726,305.11237 C 512.89747,298.05029 533,277.59288 533,275.57255 C 533,274.65976 477.98179,241.37225 464.6999,234.24914 C 464.25985,234.01313 461.78485,235.78445 459.1999,238.1854 C 441.16678,254.93491 416.92029,268.12628 389,276.37787 C 384.325,277.75952 378.8125,279.18981 376.75,279.55627 L 373,280.22258 L 373,185.52339 L 373,90.824204 L 377.25,91.486347 C 392.6683,93.888493 417.6085,100.93083 434,107.51078 C 444.41872,111.69311 462.71128,120.44193 468.53192,124.02642 L 471.56383,125.89355 L 499.53192,117.13125 L 527.5,108.36894 L 527.34408,102.93447 C 527.2084,98.205291 519.99483,39.135705 518.46787,30.25 L 517.90937,27 L 493.59547,27 L 469.28156,27 L 465.89078,34.371748 L 462.5,41.743497 L 451.5,37.341277 C 402.52193,17.740165 367.98201,10.918604 302.79589,7.972527 C 272.02386,6.5817896 230.94122,8.5485525 206,12.606469 C 166.74688,18.992922 139.4834,27.179445 111.5,40.982393 C 63.543324,64.63726 31.696295,98.480486 16.611172,141.81893 C 6.3283254,171.36079 5.1635354,209.19276 13.696083,236.5 C 29.949641,288.51728 73.508326,327.16628 140.41052,348.93191 C 170.07324,358.58223 197.63252,363.49393 244,367.39393 C 250.45363,367.93675 318.91743,367.26592 322.5,366.62476 z M 264.77221,289.34293 L 261.04441,288.88192 L 260.77221,248.94061 L 260.5,208.9993 L 293.25,208.99965 L 326,209 L 326,248.36995 L 326,287.7399 L 321.25,288.38847 C 315.31531,289.1988 269.82342,289.9676 264.77221,289.34293 z M 310.75,282.34579 L 319,281.70357 L 319,248.35178 L 319,215 L 293.5,215 L 268,215 L 268,249 L 268,283 L 285.25,282.99401 C 294.7375,282.99071 306.2125,282.69901 310.75,282.34579 z M 197.5,280.00601 C 176.38122,276.24714 153.51809,268.19655 138.78889,259.3326 C 116.82329,246.11383 104.162,230.16269 98.87154,209.04332 C 96.049662,197.77846 96.580185,178.22769 99.998847,167.5 C 110.21576,135.43952 138.24634,110.09635 178.01756,96.961246 C 187.94926,93.681138 208.22678,89 212.50368,89 L 215,89 L 215,185.5 L 215,282 L 211.25,281.89294 C 209.1875,281.83406 203,280.98494 197.5,280.00601 z M 208.7554,185.66672 L 209.01081,97 L 206.7554,97.001295 C 202.7206,97.003611 184.22292,101.88479 174.24298,105.5807 C 141.3973,117.74455 117.21216,139.93186 107.29323,167 C 104.72762,174.00138 104.54341,175.56373 104.52245,190.5 C 104.50241,204.78468 104.75065,207.19685 106.83795,213 C 115.42862,236.88395 137.05219,254.73055 171.25646,266.16661 C 182.30751,269.86149 205.16635,275.17072 207.5,274.58459 C 208.15485,274.42012 208.58815,243.72996 208.7554,185.66672 z M 261,127.10941 L 261,84.218812 L 264.75,83.667058 C 269.95245,82.901599 321.98708,83.639502 324.75,84.517918 L 327,85.233263 L 327,127.61663 L 327,170 L 294,170 L 261,170 L 261,127.10941 z M 320,127.09261 L 320,91.25 L 316.875,90.625 C 315.15625,90.28125 303.45625,90 290.875,90 L 268,90 L 267.9993,126.75 L 267.9986,163.5 L 293.9993,163.21761 L 320,162.93521 L 320,127.09261 z "
       id="path2414" />
  </g>
</svg>
