<?xml version="1.0" standalone="no"?> <!DOCTYPE svg PUBLIC "-//W3C//DTD SVG 1.0//EN" "http://www.w3.org/TR/2001/REC-SVG-20010904/DTD/svg10.dtd" > <svg xmlns="http://www.w3.org/2000/svg" width="100%" height="100%">
<defs >
<font horiz-adv-x="0" ><font-face
    font-family="NHL Montreal"
    units-per-em="1000"
    panose-1="0 0 4 0 0 0 0 0 0 0"
    ascent="800"
    descent="-200"
    alphabetic="0" />
<missing-glyph horiz-adv-x="500" d="M63 0V800H438V0H63ZM125 63H375V738H125V63Z" />
<glyph unicode=" " glyph-name="space" horiz-adv-x="500" />
<glyph unicode="0" glyph-name="zero" horiz-adv-x="474" d="M312 800H83L0 720V79L83 0H312L393 79V720L312 800ZM288 102H106V698H288V102Z" />
<glyph unicode="1" glyph-name="one" horiz-adv-x="321" d="M249 102H178V800H61L0 712V666H73V102H0V0H249V102Z" />
<glyph unicode="2" glyph-name="two" horiz-adv-x="460" d="M311 800H83L0 720V642H106V698H288V478L0 265V0H393V102H106V214L393 428V720L311 800Z" />
<glyph unicode="3" glyph-name="three" horiz-adv-x="473" d="M311 800H82L0 720V642H105V698H287V451H145V349H287V102H105V158H0V80L82 0H311L393 80V355L346 400L393 445V720L311 800Z" />
<glyph unicode="4" glyph-name="four" horiz-adv-x="543" d="M275 800L0 372V243H291V65H220V0H469V65H397V243H469V346H397V800H275ZM291 346H106L291 634V346Z" />
<glyph unicode="5" glyph-name="five" horiz-adv-x="461" d="M394 800H0V350H289V103H106V158H0V80L82 0H312L394 80V372L312 451H106V697H394V800Z" />
<glyph unicode="6" glyph-name="six" horiz-adv-x="461" d="M289 643H394V721L313 800H83L0 721V79L83 0H313L394 79V372L313 451H106V697H289V643ZM289 102H106V350H289V102Z" />
<glyph unicode="7" glyph-name="seven" horiz-adv-x="463" d="M392 800H0V643H106V697H288L124 0H232L392 683V800Z" />
<glyph unicode="8" glyph-name="eight" horiz-adv-x="474" d="M311 800H82L0 721V446L47 400L0 356V79L82 0H311L394 79V356L348 400L394 446V721L311 800ZM288 451H105V697H288V451ZM105 350H288V102H105V350Z" />
<glyph unicode="9" glyph-name="nine" horiz-adv-x="472" d="M0 721V429L81 349H288V103H106V157H0V80L81 0H311L392 80V721L311 800H81L0 721ZM288 697V451H106V697H288Z" />
<glyph unicode="A" glyph-name="A" horiz-adv-x="492" d="M147 174H273L298 0H424L294 800H132L0 0H121L147 174ZM163 288L212 652L258 288H163Z" />
<glyph unicode="B" glyph-name="B" horiz-adv-x="450" d="M212 797L181 800H0V0L210 1L240 6L270 14L294 24L304 32L340 65L363 112L374 160L377 237L370 289L358 327L345 350L335 364L317 384L289 406L281 410L299 424L308 433L329 459L335 468L347 492L361 534L365
564L367 613L358 662L350 692L340 712L328 730L305 754L296 761L279 773L250 787L212 797ZM203 676L216 666L220 663L223 659L233 639L237 623L240 600V547L239 540L236 534L233 518L223 496L219 491L209 481L197 473L184 469L177 468H122V686H160L168 685H177L194
681L203 676ZM246 282L249 256V209L242 167L236 150L230 141L219 129L210 124L204 121L190 117H122V353H170L188 350L209 342L219 337L227 328L233 318L245 292L246 282Z" />
<glyph unicode="C" glyph-name="C" horiz-adv-x="427" d="M222 799L167 800L142 797L106 788L87 779L62 763L48 749L25 717L12 691L3 654L0 617L1 170L8 132L17 105L30 74L55 43L68 33L95 17L102 14L137 4L171 0H181L230 6L254 11L274 22L286 28L305 43L328 73L346
106L353 130L361 192V291H241V170L237 149L233 137L230 131L226 128L225 124L222 120L219 119L215 116L212 113L204 110L199 108L186 106H181L157 109L148 114L138 121L127 142L124 149L120 178L127 658L137 676L142 683L146 684L150 687L153 688L157 691L168 694H175L181
695L199 692L210 688L219 683L223 679L226 674L230 670L233 665L237 652L241 630V531H361V622L360 651L352 686L348 692L346 701L327 735L305 759L279 778L245 792L222 799Z" />
<glyph unicode="D" glyph-name="D" horiz-adv-x="451" d="M301 770L285 778L255 791L196 800H0V0H181L240 6L275 16L282 20L291 23L317 42L332 59L351 89L361 115L371 167L374 213L370 649L363 678L345 721L331 741L319 754L301 770ZM237 643L243 627L246 617L248
597V186L242 155L236 144L232 137L227 134L219 125L210 122L204 121L191 118H122V683L170 682L197 676L219 665L227 658L237 643Z" />
<glyph unicode="E" glyph-name="E" horiz-adv-x="385" d="M322 800H0V0H322V121H124V361H266V475H124V686H322V800Z" />
<glyph unicode="F" glyph-name="F" horiz-adv-x="378" d="M322 800H0V0H124V361H266V475H124V686H322V800Z" />
<glyph unicode="G" glyph-name="G" horiz-adv-x="428" d="M228 797L201 800L141 797L106 788L87 779L63 763L48 749L25 717L12 691L3 654L0 617V214L7 132L12 114L28 76L47 47L55 39L84 19L105 10L128 3L150 0L179 1L194 3L208 7L222 14L241 26L269 55L276 70L299
17H356V404H171V306H241V170L236 142L229 131L228 128L222 120L219 119L217 116L212 113L204 110L200 108L188 106H181L157 109L152 112L148 114L143 119L139 121L130 137L127 142L124 149L120 170L127 658L137 676L143 683L149 687L163 692L168 694H175L181 695L200
692L210 688L219 683L223 679L229 670L236 658L237 652L241 630V534H356L352 662L345 688L330 727L317 745L302 761L279 779L252 792L228 797Z" />
<glyph unicode="H" glyph-name="H" horiz-adv-x="453" d="M245 800V475H122V800H0V0H122V360H245V0H368V800H245Z" />
<glyph unicode="I" glyph-name="I" horiz-adv-x="208" d="M0 0H124V800H0V0Z" />
<glyph unicode="J" glyph-name="J" horiz-adv-x="294" d="M89 800L81 150L72 138L62 129L58 127L50 125L33 121L9 122L4 124H0V0H69L112 6L125 10L144 19L160 32L181 58L197 95L204 119L210 170L213 800H89Z" />
<glyph unicode="K" glyph-name="K" horiz-adv-x="464" d="M383 800H262L129 488L124 463V800H0V0H124V312L168 403L270 0H399L246 528L383 800Z" />
<glyph unicode="L" glyph-name="L" horiz-adv-x="367" d="M0 800V0H314V117H122V800H0Z" />
<glyph unicode="M" glyph-name="M" horiz-adv-x="595" d="M344 800L256 295L164 800H0V0H115V593L223 0H285L394 584V0H511V800H344Z" />
<glyph unicode="N" glyph-name="N" horiz-adv-x="476" d="M0 800V0H114V478L276 0H391V800H276V292L109 800H0Z" />
<glyph unicode="O" glyph-name="O" horiz-adv-x="440" d="M232 796L196 800H167L123 793L87 779L63 763L48 749L25 717L15 699L3 654L0 617L3 170L8 132L28 81L36 68L62 39L88 21L102 14L143 3L181 0L217 3L252 11L284 28L320 62L328 72L345 106L353 130L359 160L361
201L359 651L350 686L341 708L337 714L334 721L316 748L292 768L257 788L232 796ZM199 691H204L208 688L218 683L222 679L228 670L234 658L236 652L240 630L234 142L225 124L221 120L218 119L215 116L211 113L208 112L186 106H181L156 109L152 112L146 114L142
117L138 121L131 131L125 142L124 149L120 161L137 676L142 683L148 687L156 691H161L168 694H192L199 691Z" />
<glyph unicode="P" glyph-name="P" horiz-adv-x="430" d="M250 793L240 796L201 800H0V0H124V327H216L224 328H232L239 329L248 331L255 332L276 342L296 355L314 371L324 384L340 407L353 440L365 488L374 553L370 629L360 682L354 699L337 732L322 753L304 768L282
781L250 793ZM210 678L227 665L232 660L235 655L237 647L243 630L248 594V537L240 489L233 469L223 456L210 447L197 443L181 442H124V686H168L194 682L210 678Z" />
<glyph unicode="Q" glyph-name="Q" horiz-adv-x="469" d="M294 768L258 788L245 792L209 799L168 800L123 793L87 778L62 761L48 749L25 717L15 698L3 652L0 615L4 153L19 98L37 66L52 48L78 25L89 19L113 10L150 2L186 0L223 7L247 15L270 26L278 13L296 -8L314
-21L328 -26L350 -32L367 -34H396V82H390L382 83H379L371 86L360 90L354 94L353 98L350 99L347 105L350 113L353 120L357 134L363 173L360 650L352 684L339 713L327 734L294 768ZM209 688L219 681L223 677L230 669L238 652L241 622L236 142L226 124L222 122L216
116L212 113L209 112L187 106H182L163 109H157L153 113L147 115L143 117L131 131L125 142L120 170V178L118 186L131 669L135 672L138 676L143 681L157 690L163 691L169 692H194L198 691L205 690L209 688Z" />
<glyph unicode="R" glyph-name="R" horiz-adv-x="458" d="M200 800H0V0H124V337H183L258 0H386L295 373L317 390L341 422L354 446L365 486L373 555L367 653L363 665V673L341 725L321 753L312 761L283 781L249 793L200 800ZM220 670L226 666L230 662L233 656L240
640L242 632L248 586L245 521L237 494L235 485L229 476L217 465L204 459L189 455L180 453H124V686H167L194 682L207 678L220 670Z" />
<glyph unicode="S" glyph-name="S" horiz-adv-x="445" d="M195 800L140 790L106 777L98 771L69 747L39 712L26 688L14 644L11 626L12 582L14 565L29 518L43 489L52 475L232 274L235 265L240 260L256 231L263 207L264 199V175L260 159L256 152L247 140L242 134L229
124L216 119L200 115H184L175 116L162 120L158 123L152 126L148 129L144 133L140 135L131 149L123 166L122 175L119 184L113 220V231L0 213L7 151L18 115L43 70L66 46L95 25L119 14L156 3L169 1L211 0L235 3L251 7L289 23L308 37L315 43L323 50L344 75L348 83L368
119L377 159L379 171V213L370 263L352 310L336 334L311 366L188 497L155 540L131 590L128 608V630L130 637L138 659L141 665L153 677L162 683L166 684L182 688L203 687H210L221 683L231 674L235 670L240 662L247 647L253 622L256 593L372 609L370 622L363 660L355
687L339 720L318 747L300 764L272 782L229 796L218 799L195 800Z" />
<glyph unicode="T" glyph-name="T" horiz-adv-x="440" d="M377 686V800H0V686H128V0H249V686H377Z" />
<glyph unicode="U" glyph-name="U" horiz-adv-x="451" d="M247 800L225 131L216 124H212L208 122L195 119H178L165 122L161 124H157L150 130L147 133L143 136L140 139L136 146L131 154L123 178V800H0L7 144L21 99L37 69L65 38L98 16L106 13L123 8L158 0H185L236
4L247 7L283 21L302 35L312 44L328 62L343 85L353 107L365 141L366 153L370 194V800H247Z" />
<glyph unicode="V" glyph-name="V" horiz-adv-x="480" d="M294 800L209 239L121 800H0L144 0H272L414 800H294Z" />
<glyph unicode="W" glyph-name="W" horiz-adv-x="676" d="M491 800L432 262L355 800H252L180 265L117 800H0L125 0H229L305 521L380 0H483L607 800H491Z" />
<glyph unicode="X" glyph-name="X" horiz-adv-x="494" d="M414 800H288L207 557L128 800H3L145 407L0 0H127L216 269L298 0H426L275 419L414 800Z" />
<glyph unicode="Y" glyph-name="Y" horiz-adv-x="475" d="M288 800L207 466L125 800H0L147 318V0H269V332L414 800H288Z" />
<glyph unicode="Z" glyph-name="Z" horiz-adv-x="425" d="M355 800H19V678H223L0 124V0H355V124H132L355 686V800Z" />
<glyph unicode="a" glyph-name="a" horiz-adv-x="492" d="M147 174H273L298 0H424L294 800H132L0 0H121L147 174ZM163 288L212 652L258 288H163Z" />
<glyph unicode="b" glyph-name="b" horiz-adv-x="450" d="M212 797L181 800H0V0L210 1L240 6L270 14L294 24L304 32L340 65L363 112L374 160L377 237L370 289L358 327L345 350L335 364L317 384L289 406L281 410L299 424L308 433L329 459L335 468L347 492L361 534L365
564L367 613L358 662L350 692L340 712L328 730L305 754L296 761L279 773L250 787L212 797ZM203 676L216 666L220 663L223 659L233 639L237 623L240 600V547L239 540L236 534L233 518L223 496L219 491L209 481L197 473L184 469L177 468H122V686H160L168 685H177L194
681L203 676ZM246 282L249 256V209L242 167L236 150L230 141L219 129L210 124L204 121L190 117H122V353H170L188 350L209 342L219 337L227 328L233 318L245 292L246 282Z" />
<glyph unicode="c" glyph-name="c" horiz-adv-x="427" d="M222 799L167 800L142 797L106 788L87 779L62 763L48 749L25 717L12 691L3 654L0 617L1 170L8 132L17 105L30 74L55 43L68 33L95 17L102 14L137 4L171 0H181L230 6L254 11L274 22L286 28L305 43L328 73L346
106L353 130L361 192V291H241V170L237 149L233 137L230 131L226 128L225 124L222 120L219 119L215 116L212 113L204 110L199 108L186 106H181L157 109L148 114L138 121L127 142L124 149L120 178L127 658L137 676L142 683L146 684L150 687L153 688L157 691L168 694H175L181
695L199 692L210 688L219 683L223 679L226 674L230 670L233 665L237 652L241 630V531H361V622L360 651L352 686L348 692L346 701L327 735L305 759L279 778L245 792L222 799Z" />
<glyph unicode="d" glyph-name="d" horiz-adv-x="451" d="M301 770L285 778L255 791L196 800H0V0H181L240 6L275 16L282 20L291 23L317 42L332 59L351 89L361 115L371 167L374 213L370 649L363 678L345 721L331 741L319 754L301 770ZM237 643L243 627L246 617L248
597V186L242 155L236 144L232 137L227 134L219 125L210 122L204 121L191 118H122V683L170 682L197 676L219 665L227 658L237 643Z" />
<glyph unicode="e" glyph-name="e" horiz-adv-x="385" d="M322 800H0V0H322V121H124V361H266V475H124V686H322V800Z" />
<glyph unicode="f" glyph-name="f" horiz-adv-x="378" d="M322 800H0V0H124V361H266V475H124V686H322V800Z" />
<glyph unicode="g" glyph-name="g" horiz-adv-x="428" d="M228 797L201 800L141 797L106 788L87 779L63 763L48 749L25 717L12 691L3 654L0 617V214L7 132L12 114L28 76L47 47L55 39L84 19L105 10L128 3L150 0L179 1L194 3L208 7L222 14L241 26L269 55L276 70L299
17H356V404H171V306H241V170L236 142L229 131L228 128L222 120L219 119L217 116L212 113L204 110L200 108L188 106H181L157 109L152 112L148 114L143 119L139 121L130 137L127 142L124 149L120 170L127 658L137 676L143 683L149 687L163 692L168 694H175L181 695L200
692L210 688L219 683L223 679L229 670L236 658L237 652L241 630V534H356L352 662L345 688L330 727L317 745L302 761L279 779L252 792L228 797Z" />
<glyph unicode="h" glyph-name="h" horiz-adv-x="453" d="M245 800V475H122V800H0V0H122V360H245V0H368V800H245Z" />
<glyph unicode="i" glyph-name="i" horiz-adv-x="208" d="M0 0H124V800H0V0Z" />
<glyph unicode="j" glyph-name="j" horiz-adv-x="294" d="M89 800L81 150L72 138L62 129L58 127L50 125L33 121L9 122L4 124H0V0H69L112 6L125 10L144 19L160 32L181 58L197 95L204 119L210 170L213 800H89Z" />
<glyph unicode="k" glyph-name="k" horiz-adv-x="464" d="M383 800H262L129 488L124 463V800H0V0H124V312L168 403L270 0H399L246 528L383 800Z" />
<glyph unicode="l" glyph-name="l" horiz-adv-x="367" d="M0 800V0H314V117H122V800H0Z" />
<glyph unicode="m" glyph-name="m" horiz-adv-x="595" d="M344 800L256 295L164 800H0V0H115V593L223 0H285L394 584V0H511V800H344Z" />
<glyph unicode="n" glyph-name="n" horiz-adv-x="476" d="M0 800V0H114V478L276 0H391V800H276V292L109 800H0Z" />
<glyph unicode="o" glyph-name="o" horiz-adv-x="440" d="M232 796L196 800H167L123 793L87 779L63 763L48 749L25 717L15 699L3 654L0 617L3 170L8 132L28 81L36 68L62 39L88 21L102 14L143 3L181 0L217 3L252 11L284 28L320 62L328 72L345 106L353 130L359 160L361
201L359 651L350 686L341 708L337 714L334 721L316 748L292 768L257 788L232 796ZM199 691H204L208 688L218 683L222 679L228 670L234 658L236 652L240 630L234 142L225 124L221 120L218 119L215 116L211 113L208 112L186 106H181L156 109L152 112L146 114L142
117L138 121L131 131L125 142L124 149L120 161L137 676L142 683L148 687L156 691H161L168 694H192L199 691Z" />
<glyph unicode="p" glyph-name="p" horiz-adv-x="430" d="M250 793L240 796L201 800H0V0H124V327H216L224 328H232L239 329L248 331L255 332L276 342L296 355L314 371L324 384L340 407L353 440L365 488L374 553L370 629L360 682L354 699L337 732L322 753L304 768L282
781L250 793ZM210 678L227 665L232 660L235 655L237 647L243 630L248 594V537L240 489L233 469L223 456L210 447L197 443L181 442H124V686H168L194 682L210 678Z" />
<glyph unicode="q" glyph-name="q" horiz-adv-x="469" d="M294 768L258 788L245 792L209 799L168 800L123 793L87 778L62 761L48 749L25 717L15 698L3 652L0 615L4 153L19 98L37 66L52 48L78 25L89 19L113 10L150 2L186 0L223 7L247 15L270 26L278 13L296 -8L314
-21L328 -26L350 -32L367 -34H396V82H390L382 83H379L371 86L360 90L354 94L353 98L350 99L347 105L350 113L353 120L357 134L363 173L360 650L352 684L339 713L327 734L294 768ZM209 688L219 681L223 677L230 669L238 652L241 622L236 142L226 124L222 122L216
116L212 113L209 112L187 106H182L163 109H157L153 113L147 115L143 117L131 131L125 142L120 170V178L118 186L131 669L135 672L138 676L143 681L157 690L163 691L169 692H194L198 691L205 690L209 688Z" />
<glyph unicode="r" glyph-name="r" horiz-adv-x="458" d="M200 800H0V0H124V337H183L258 0H386L295 373L317 390L341 422L354 446L365 486L373 555L367 653L363 665V673L341 725L321 753L312 761L283 781L249 793L200 800ZM220 670L226 666L230 662L233 656L240
640L242 632L248 586L245 521L237 494L235 485L229 476L217 465L204 459L189 455L180 453H124V686H167L194 682L207 678L220 670Z" />
<glyph unicode="s" glyph-name="s" horiz-adv-x="445" d="M195 800L140 790L106 777L98 771L69 747L39 712L26 688L14 644L11 626L12 582L14 565L29 518L43 489L52 475L232 274L235 265L240 260L256 231L263 207L264 199V175L260 159L256 152L247 140L242 134L229
124L216 119L200 115H184L175 116L162 120L158 123L152 126L148 129L144 133L140 135L131 149L123 166L122 175L119 184L113 220V231L0 213L7 151L18 115L43 70L66 46L95 25L119 14L156 3L169 1L211 0L235 3L251 7L289 23L308 37L315 43L323 50L344 75L348 83L368
119L377 159L379 171V213L370 263L352 310L336 334L311 366L188 497L155 540L131 590L128 608V630L130 637L138 659L141 665L153 677L162 683L166 684L182 688L203 687H210L221 683L231 674L235 670L240 662L247 647L253 622L256 593L372 609L370 622L363 660L355
687L339 720L318 747L300 764L272 782L229 796L218 799L195 800Z" />
<glyph unicode="t" glyph-name="t" horiz-adv-x="440" d="M377 686V800H0V686H128V0H249V686H377Z" />
<glyph unicode="u" glyph-name="u" horiz-adv-x="451" d="M247 800L225 131L216 124H212L208 122L195 119H178L165 122L161 124H157L150 130L147 133L143 136L140 139L136 146L131 154L123 178V800H0L7 144L21 99L37 69L65 38L98 16L106 13L123 8L158 0H185L236
4L247 7L283 21L302 35L312 44L328 62L343 85L353 107L365 141L366 153L370 194V800H247Z" />
<glyph unicode="v" glyph-name="v" horiz-adv-x="480" d="M294 800L209 239L121 800H0L144 0H272L414 800H294Z" />
<glyph unicode="w" glyph-name="w" horiz-adv-x="676" d="M491 800L432 262L355 800H252L180 265L117 800H0L125 0H229L305 521L380 0H483L607 800H491Z" />
<glyph unicode="x" glyph-name="x" horiz-adv-x="494" d="M414 800H288L207 557L128 800H3L145 407L0 0H127L216 269L298 0H426L275 419L414 800Z" />
<glyph unicode="y" glyph-name="y" horiz-adv-x="475" d="M288 800L207 466L125 800H0L147 318V0H269V332L414 800H288Z" />
<glyph unicode="z" glyph-name="z" horiz-adv-x="425" d="M355 800H19V678H223L0 124V0H355V124H132L355 686V800Z" />
</font>
</defs>
</svg>
